<svg id="Layer_1" enable-background="new 0 0 512 512" height="512" viewBox="0 0 512 512" width="512" xmlns="http://www.w3.org/2000/svg"><path d="m173.734 374.582-21.346-21.346-20.396 13.942c-1.404.961-3.047 1.468-4.749 1.468-1.362 0-2.72-.336-3.926-.973-2.768-1.46-4.487-4.312-4.487-7.441v-27.82h-66.2c-29.021-.001-52.63 23.308-52.63 51.96v68.288c0 3.118 2.527 5.645 5.646 5.645h142.69z" fill="#c7eefd"/><path d="m322.997 440.913-1.407-2.363c-4.288-7.205-7.505-14.96-9.561-23.05l-.676-2.664-24.148-5.169c-2.683-.574-4.63-2.982-4.63-5.727v-16.076c0-2.745 1.947-5.153 4.63-5.727l24.148-5.169.677-2.665c2.055-8.09 5.271-15.846 9.56-23.051l1.407-2.362-9.374-14.48h-55.859v27.82c0 3.128-1.72 5.98-4.487 7.441-1.207.637-2.564.973-3.927.973-1.702 0-3.344-.507-4.749-1.468l-20.396-13.942-21.345 21.346 25.219 83.723h83.658z" fill="#c7eefd"/><path d="m43.204 452.659v-68.288c0-28.651 23.609-51.961 52.631-51.961h-43.204c-29.022.001-52.631 23.31-52.631 51.962v68.288c0 3.118 2.527 5.645 5.646 5.645h43.204c-3.119-.001-5.646-2.528-5.646-5.646z" fill="#98e5fb"/><path d="m203.662 373.779-8.788 8.788c-1.749 1.748-4.085 2.712-6.577 2.712s-4.829-.963-6.578-2.712l-8.787-8.787-25.482 84.525h81.696z" fill="#0592fb"/><path d="m188.297 385.279c-2.492 0-4.829-.963-6.578-2.712l-8.787-8.787-25.482 84.525h19.7l22.028-73.068c-.291.026-.584.042-.881.042z" fill="#0181fb"/><path d="m188.297 328.69-36.748 25.12 29.463 29.463c4.008 4.007 10.563 4.007 14.569.001l29.464-29.464z" fill="#0181fb"/><path d="m179.681 335.37 2.497-2.497-30.629 20.937 29.463 29.463c4.008 4.007 10.563 4.007 14.569.001l8.718-8.717-24.618-24.618c-4.007-4.006-4.007-10.562 0-14.569z" fill="#0067c4"/><path d="m202.15 326.551h-27.706c-20.863 0-40.31-6.107-56.613-16.599v50.279c0 3.491 1.933 6.696 5.021 8.325 1.379.728 2.889 1.089 4.393 1.089 1.862 0 3.719-.552 5.313-1.642l55.739-38.101 55.739 38.101c1.596 1.09 3.451 1.642 5.313 1.642 1.505 0 3.014-.361 4.394-1.089 3.087-1.629 5.021-4.834 5.021-8.325v-50.281c-16.304 10.494-35.75 16.601-56.614 16.601z" fill="#98e5fb"/><path d="m188.301 2.886c-65.667 0-118.899 24.125-118.899 88.784v64.389c.126-64.488 53.308-88.559 118.896-88.559 65.665 0 118.894 24.125 118.894 88.785l.002-64.616c-.001-64.658-53.229-88.783-118.893-88.783z" fill="#c76d36"/><path d="m101.537 88.041c1.8-56.702 45.918-80.954 102.799-84.644-5.245-.341-10.597-.51-16.035-.51-65.667 0-118.899 24.125-118.899 88.784v62.94c.059-30.838 12.255-52.429 32.135-66.57z" fill="#ab5e2e"/><path d="m70.398 223.707v-53.402h-17.202c-12.066 0-21.852 9.573-21.852 21.378v25.877c0 11.808 9.785 21.378 21.852 21.378h18.345c-.75-4.972-1.143-10.057-1.143-15.231z" fill="#fdd1a3"/><path d="m323.399 170.305h-17.208v53.402c0 5.175-.393 10.26-1.143 15.231h18.351c12.067 0 21.851-9.57 21.851-21.378v-25.877c0-11.805-9.783-21.378-21.851-21.378z" fill="#ffbb85"/><path d="m188.298 66.052c-65.666 0-118.899 24.125-118.899 88.785v68.87c0 57.349 47.032 103.844 105.046 103.844h27.706c58.014 0 105.041-46.495 105.041-103.844v-68.87c-.001-64.66-53.229-88.785-118.894-88.785z" fill="#fdd1a3"/><path d="m101.473 223.707v-68.87c0-59.304 44.782-84.506 102.862-88.275-5.246-.341-10.598-.51-16.037-.51-65.666 0-118.899 24.125-118.899 88.785v68.87c0 57.349 47.032 103.844 105.046 103.844h27.706c.729 0 1.457-.013 2.184-.027-57.005-1.151-102.862-47.19-102.862-103.817z" fill="#ffbb85"/><g fill="#ab5e2e"><path d="m199.222 210.794h-14.363c-7.83 0-14.2-6.33-14.2-14.111v-27.29c0-4.142 3.357-7.5 7.5-7.5s7.5 3.358 7.5 7.5v26.402h13.563c4.143 0 7.5 3.358 7.5 7.5 0 4.141-3.358 7.499-7.5 7.499z"/><path d="m124.605 191.733c-4.143 0-7.5-3.358-7.5-7.5v-23.901c0-4.142 3.357-7.5 7.5-7.5s7.5 3.358 7.5 7.5v23.901c0 4.143-3.357 7.5-7.5 7.5z"/><path d="m251.987 191.733c-4.143 0-7.5-3.358-7.5-7.5v-23.901c0-4.142 3.357-7.5 7.5-7.5s7.5 3.358 7.5 7.5v23.901c0 4.143-3.357 7.5-7.5 7.5z"/><path d="m188.296 281.761c-26.232 0-47.573-21.423-47.573-47.755 0-4.142 3.357-7.5 7.5-7.5s7.5 3.358 7.5 7.5c0 18.061 14.612 32.755 32.573 32.755 17.962 0 32.574-14.694 32.574-32.755 0-4.142 3.357-7.5 7.5-7.5s7.5 3.358 7.5 7.5c0 26.332-21.342 47.755-47.574 47.755z"/></g><path d="m396.788 336.995c-31.379 0-56.908 25.529-56.908 56.907s25.529 56.907 56.908 56.907 56.907-25.529 56.907-56.907c0-31.379-25.528-56.907-56.907-56.907z" fill="#5a5a5a"/><circle cx="396.787" cy="393.902" fill="#9b9b9b" r="31.539"/><path d="m388.658 393.902c0-13.281 8.213-24.637 19.834-29.286-3.62-1.448-7.567-2.253-11.704-2.253-17.42 0-31.54 14.12-31.54 31.539 0 17.417 14.12 31.538 31.54 31.538 4.137 0 8.084-.805 11.704-2.253-11.621-4.649-19.834-16.005-19.834-29.285z" fill="#828282"/><path d="m388.75 509.114c-3.236 0-6.029-2.259-6.705-5.421l-5.038-23.542-2.063-.523c-8.186-2.08-16.03-5.332-23.315-9.67l-1.831-1.089-20.221 13.091c-1.142.74-2.436 1.101-3.724 1.101-1.769 0-3.526-.684-4.85-2.009l-11.368-11.368c-2.286-2.286-2.664-5.859-.906-8.573l13.091-20.221-1.09-1.829c-4.338-7.289-7.591-15.133-9.67-23.316l-.523-2.063-23.541-5.038c-3.162-.677-5.421-3.471-5.421-6.705v-16.076c0-3.234 2.259-6.028 5.421-6.705l23.541-5.039.523-2.063c2.079-8.183 5.332-16.027 9.67-23.316l1.09-1.829-13.091-20.22c-1.758-2.715-1.38-6.288.906-8.574l11.368-11.368c1.323-1.324 3.08-2.008 4.85-2.008 1.287 0 2.582.361 3.724 1.101l20.221 13.09 1.828-1.088c7.288-4.337 15.133-7.591 23.318-9.669l2.063-.523 5.036-23.541c.678-3.163 3.471-5.422 6.707-5.422h16.076c3.233 0 6.027 2.259 6.704 5.422l5.039 23.541 2.062.523c8.186 2.08 16.03 5.333 23.316 9.669l1.83 1.089 20.219-13.091c1.142-.74 2.436-1.101 3.725-1.101 1.771 0 3.525.684 4.849 2.008l11.368 11.368c2.287 2.286 2.664 5.859.908 8.574l-13.09 20.219 1.089 1.829c4.336 7.289 7.589 15.134 9.668 23.318l.525 2.062 23.539 5.039c3.162.676 5.423 3.47 5.423 6.705v16.076c0 3.234-2.261 6.028-5.423 6.705l-23.539 5.038-.525 2.063c-2.079 8.183-5.332 16.028-9.668 23.316l-1.089 1.829 13.09 20.22c1.756 2.714 1.379 6.287-.908 8.573l-11.368 11.368c-1.323 1.325-3.078 2.009-4.849 2.009-1.288 0-2.583-.361-3.725-1.101l-20.219-13.091-1.83 1.089c-7.288 4.337-15.133 7.59-23.316 9.67l-2.062.523-5.039 23.542c-.677 3.162-3.471 5.421-6.704 5.421h-16.076zm8.038-172.119c-31.379 0-56.908 25.529-56.908 56.907s25.529 56.907 56.908 56.907 56.907-25.529 56.907-56.907c0-31.379-25.528-56.907-56.907-56.907z" fill="#9b9b9b"/></svg>