<svg id="Layer_1" enable-background="new 0 0 256 256" height="512" viewBox="0 0 256 256" width="512" xmlns="http://www.w3.org/2000/svg"><g><g><path d="m208.835 197.734h-161.67c-3.689 0-6.68-2.991-6.68-6.68v-40.906c0-3.689 2.991-6.68 6.68-6.68h161.67c3.689 0 6.68 2.991 6.68 6.68v40.906c0 3.689-2.991 6.68-6.68 6.68z" fill="#f4efed"/></g><g><path d="m208.835 252h-161.67c-3.689 0-6.68-2.991-6.68-6.68v-40.906c0-3.689 2.991-6.68 6.68-6.68h161.67c3.689 0 6.68 2.991 6.68 6.68v40.906c0 3.689-2.991 6.68-6.68 6.68z" fill="#f4efed"/></g><g><path d="m208.835 143.469h-161.67c-3.689 0-6.68-2.991-6.68-6.68v-40.906c0-3.689 2.991-6.68 6.68-6.68h161.67c3.689 0 6.68 2.991 6.68 6.68v40.906c0 3.689-2.991 6.68-6.68 6.68z" fill="#f4efed"/></g><g><path d="m208.835 89.203h-10.774c3.689 0 6.68 2.991 6.68 6.68v40.906c0 3.689-2.991 6.68-6.68 6.68h10.774c3.689 0 6.68-2.991 6.68-6.68v-40.906c0-3.69-2.991-6.68-6.68-6.68z" fill="#d6d1cf"/></g><g><path d="m208.835 143.469h-10.774c3.689 0 6.68 2.991 6.68 6.68v40.906c0 3.689-2.991 6.68-6.68 6.68h10.774c3.689 0 6.68-2.991 6.68-6.68v-40.906c0-3.69-2.991-6.68-6.68-6.68z" fill="#d6d1cf"/></g><g><path d="m208.835 197.734h-10.774c3.689 0 6.68 2.991 6.68 6.68v40.906c0 3.689-2.991 6.68-6.68 6.68h10.774c3.689 0 6.68-2.991 6.68-6.68v-40.906c0-3.689-2.991-6.68-6.68-6.68z" fill="#d6d1cf"/></g><g><path d="m47.165 252h10.774c-3.689 0-6.68-2.991-6.68-6.68v-40.906c0-3.689 2.991-6.68 6.68-6.68h-10.774c-3.689 0-6.68 2.991-6.68 6.68v40.906c0 3.689 2.991 6.68 6.68 6.68z" fill="#fff"/></g><g><path d="m47.165 197.734h10.774c-3.689 0-6.68-2.991-6.68-6.68v-40.906c0-3.689 2.991-6.68 6.68-6.68h-10.774c-3.689 0-6.68 2.991-6.68 6.68v40.906c0 3.69 2.991 6.68 6.68 6.68z" fill="#fff"/></g><g><path d="m47.165 143.469h10.774c-3.689 0-6.68-2.991-6.68-6.68v-40.906c0-3.689 2.991-6.68 6.68-6.68h-10.774c-3.689 0-6.68 2.991-6.68 6.68v40.906c0 3.689 2.991 6.68 6.68 6.68z" fill="#fff"/></g><g><path d="m208.835 145.468h-161.67c-4.786 0-8.68-3.894-8.68-8.68v-40.905c0-4.786 3.893-8.68 8.68-8.68h161.67c4.786 0 8.68 3.894 8.68 8.68v40.906c0 4.786-3.894 8.679-8.68 8.679zm-161.67-54.265c-2.58 0-4.68 2.1-4.68 4.68v40.906c0 2.58 2.1 4.68 4.68 4.68h161.67c2.58 0 4.68-2.099 4.68-4.68v-40.906c0-2.581-2.1-4.68-4.68-4.68z" fill="#690589"/></g><g><path d="m51.259 119.645c-1.104 0-2-.896-2-2v-11.642c0-1.104.896-2 2-2s2 .896 2 2v11.642c0 1.104-.896 2-2 2z" fill="#690589"/></g><g><path d="m181.914 178.784h-67.351c-4.995 0-9.044-4.049-9.044-9.044 0-4.995 4.049-9.044 9.044-9.044h67.351c4.995 0 9.044 4.049 9.044 9.044 0 4.995-4.049 9.044-9.044 9.044z" fill="#526faa"/></g><g><path d="m181.914 180.784h-67.351c-6.09 0-11.044-4.954-11.044-11.044s4.954-11.044 11.044-11.044h67.351c6.09 0 11.045 4.955 11.045 11.044 0 6.09-4.955 11.044-11.045 11.044zm-67.351-18.088c-3.884 0-7.044 3.16-7.044 7.044s3.16 7.044 7.044 7.044h67.351c3.885 0 7.045-3.16 7.045-7.044s-3.16-7.044-7.045-7.044z" fill="#690589"/></g><g><path d="m83.13 169.74c0 4.995-4.049 9.044-9.044 9.044s-9.044-4.049-9.044-9.044 4.049-9.044 9.044-9.044 9.044 4.049 9.044 9.044z" fill="#ff4397"/></g><g><path d="m74.086 180.784c-6.09 0-11.045-4.954-11.045-11.044s4.955-11.044 11.045-11.044 11.044 4.955 11.044 11.044c0 6.09-4.954 11.044-11.044 11.044zm0-18.088c-3.885 0-7.045 3.16-7.045 7.044s3.16 7.044 7.045 7.044c3.884 0 7.044-3.16 7.044-7.044s-3.16-7.044-7.044-7.044z" fill="#690589"/></g><g><path d="m181.914 233.05h-67.351c-4.995 0-9.044-4.049-9.044-9.044 0-4.995 4.049-9.044 9.044-9.044h67.351c4.995 0 9.044 4.049 9.044 9.044 0 4.995-4.049 9.044-9.044 9.044z" fill="#526faa"/></g><g><path d="m181.914 235.05h-67.351c-6.09 0-11.044-4.954-11.044-11.044s4.954-11.045 11.044-11.045h67.351c6.09 0 11.045 4.955 11.045 11.045s-4.955 11.044-11.045 11.044zm-67.351-18.089c-3.884 0-7.044 3.16-7.044 7.045 0 3.884 3.16 7.044 7.044 7.044h67.351c3.885 0 7.045-3.16 7.045-7.044s-3.16-7.045-7.045-7.045z" fill="#690589"/></g><g><path d="m83.13 224.006c0 4.995-4.049 9.044-9.044 9.044s-9.044-4.049-9.044-9.044 4.049-9.044 9.044-9.044c4.995-.001 9.044 4.049 9.044 9.044z" fill="#ff4397"/></g><g><path d="m74.086 235.05c-6.09 0-11.045-4.954-11.045-11.044s4.955-11.045 11.045-11.045 11.044 4.955 11.044 11.045-4.954 11.044-11.044 11.044zm0-18.089c-3.885 0-7.045 3.16-7.045 7.045 0 3.884 3.16 7.044 7.045 7.044 3.884 0 7.044-3.16 7.044-7.044s-3.16-7.045-7.044-7.045z" fill="#690589"/></g><g><path d="m181.914 124.518h-67.351c-4.995 0-9.044-4.049-9.044-9.044 0-4.995 4.049-9.044 9.044-9.044h67.351c4.995 0 9.044 4.049 9.044 9.044 0 4.995-4.049 9.044-9.044 9.044z" fill="#526faa"/></g><g><path d="m181.914 126.519h-67.351c-6.09 0-11.044-4.955-11.044-11.045s4.954-11.044 11.044-11.044h67.351c6.09 0 11.045 4.955 11.045 11.044 0 6.09-4.955 11.045-11.045 11.045zm-67.351-18.089c-3.884 0-7.044 3.16-7.044 7.044s3.16 7.045 7.044 7.045h67.351c3.885 0 7.045-3.16 7.045-7.045s-3.16-7.044-7.045-7.044z" fill="#690589"/></g><g><path d="m83.13 115.474c0 4.995-4.049 9.044-9.044 9.044s-9.044-4.049-9.044-9.044 4.049-9.044 9.044-9.044 9.044 4.049 9.044 9.044z" fill="#ff4397"/></g><g><path d="m74.086 126.519c-6.09 0-11.045-4.955-11.045-11.045s4.955-11.044 11.045-11.044 11.044 4.955 11.044 11.044c0 6.09-4.954 11.045-11.044 11.045zm0-18.089c-3.885 0-7.045 3.16-7.045 7.044s3.16 7.045 7.045 7.045c3.884 0 7.044-3.16 7.044-7.045s-3.16-7.044-7.044-7.044z" fill="#690589"/></g><g><path d="m208.835 199.734h-161.67c-4.786 0-8.68-3.894-8.68-8.68v-40.906c0-4.786 3.893-8.68 8.68-8.68h161.67c4.786 0 8.68 3.894 8.68 8.68v40.906c0 4.786-3.894 8.68-8.68 8.68zm-161.67-54.266c-2.58 0-4.68 2.1-4.68 4.68v40.906c0 2.581 2.1 4.68 4.68 4.68h161.67c2.58 0 4.68-2.1 4.68-4.68v-40.906c0-2.581-2.1-4.68-4.68-4.68z" fill="#690589"/></g><g><path d="m208.835 254h-161.67c-4.786 0-8.68-3.894-8.68-8.68v-40.906c0-4.786 3.893-8.68 8.68-8.68h161.67c4.786 0 8.68 3.893 8.68 8.68v40.906c0 4.786-3.894 8.68-8.68 8.68zm-161.67-54.266c-2.58 0-4.68 2.099-4.68 4.68v40.906c0 2.581 2.1 4.68 4.68 4.68h161.67c2.58 0 4.68-2.099 4.68-4.68v-40.906c0-2.581-2.1-4.68-4.68-4.68z" fill="#690589"/></g><g><path d="m70.68 35.218v2.842c0 45.424 21.199 88.245 57.32 115.787 36.121-27.542 57.32-70.363 57.32-115.787v-2.842l-57.32-31.218z" fill="#fcc24c"/></g><g><path d="m177.32 30.861v1.933c0 52.444-20.449 91.725-49.32 121.053 36.121-27.542 57.32-70.363 57.32-115.787v-2.842z" fill="#dea42e"/></g><g><path d="m78.68 30.861v1.933c0 52.444 20.448 91.725 49.32 121.053-36.121-27.542-57.32-70.363-57.32-115.787v-2.842z" fill="#fce06a"/></g><g><path d="m128 155.847c-.428 0-.854-.137-1.213-.41-36.385-27.743-58.107-71.623-58.107-117.377v-2.842c0-.732.4-1.406 1.043-1.756l57.32-31.218c.598-.325 1.316-.325 1.914 0l57.32 31.218c.643.35 1.043 1.024 1.043 1.756v2.842c0 45.754-21.723 89.634-58.107 117.377-.358.273-.785.41-1.213.41zm-55.32-119.441v1.654c0 44.004 20.652 86.225 55.32 113.261 34.668-27.036 55.32-69.257 55.32-113.261v-1.654l-55.32-30.129z" fill="#690589"/></g><g><g><path d="m121.501 103.674-30.698-29.098 10.593-11.173 20.462 19.396 33.133-29.418 10.206 11.53z" fill="#526faa"/></g></g><g><g><g><path d="m121.501 105.674c-.496 0-.991-.184-1.376-.548l-30.697-29.099c-.385-.365-.609-.868-.623-1.398-.015-.53.183-1.044.548-1.429l10.593-11.173c.759-.802 2.026-.835 2.827-.076l19.13 18.134 31.761-28.2c.397-.353.92-.535 1.448-.501.53.032 1.025.273 1.378.671l10.205 11.531c.731.827.655 2.089-.171 2.822l-43.695 38.763c-.38.336-.854.503-1.328.503zm-27.87-31.174 27.915 26.461 40.829-36.22-7.554-8.535-31.635 28.088c-.777.69-1.952.669-2.704-.044l-19.01-18.02z" fill="#690589"/></g></g></g></g></svg>