<?xml version="1.0" encoding="utf-8"?>
<!-- Generator: Adobe Illustrator 22.0.1, SVG Export Plug-In . SVG Version: 6.00 Build 0)  -->
<svg version="1.1" id="Layer_1" xmlns="http://www.w3.org/2000/svg" xmlns:xlink="http://www.w3.org/1999/xlink" x="0px" y="0px"
	 viewBox="0 0 501.3 501.3" style="enable-background:new 0 0 501.3 501.3;" xml:space="preserve">
<style type="text/css">
	.st0{fill:#2E4859;}
	.st1{fill:#F6F7F8;}
	.st2{fill:#FB6340;}
	.st3{fill:#3A5569;}
	.st4{fill:#637888;}
</style>
<path class="st0" d="M491.7,468.3c-12.8-44.8-44.8-80-86.4-96l-80-30.9l-19.2-40.5L250.7,320l-55.5-19.2L176,341.3l-80,30.9
	c-40.5,16-72.5,51.2-86.4,96L0,501.3h250.7h250.7L491.7,468.3z"/>
<g>
	<polygon class="st1" points="250.7,345.6 229.3,402.1 172.8,341.3 195.2,300.8 	"/>
	<polygon class="st1" points="250.7,345.6 272,402.1 328.5,341.3 306.1,300.8 	"/>
</g>
<g>
	<ellipse class="st2" cx="250.7" cy="190.9" rx="94.9" ry="154.7"/>
	<path class="st2" d="M169.6,204.8c4.3,22.4,0,42.7-8.5,44.8s-19.2-14.9-23.5-38.4c-4.3-22.4,0-42.7,8.5-44.8
		C154.7,164.3,165.3,181.3,169.6,204.8z"/>
	<path class="st2" d="M331.7,204.8c-4.3,22.4,0,42.7,8.5,44.8s19.2-14.9,23.5-38.4c4.3-22.4,0-42.7-8.5-44.8
		C346.7,164.3,336,181.3,331.7,204.8z"/>
</g>
<polygon class="st3" points="35.2,66.1 275.2,0 466.1,77.9 245.3,114.1 "/>
<path class="st2" d="M395.7,48c0,0,33.1-7.5,33.1,16s5.3,209.1,5.3,209.1h-39.5l8.5-220.8L395.7,48z"/>
<path class="st4" d="M250.7,49.1c-52.3,0-94.9,7.5-94.9,18.1V160c0-10.7,42.7-19.2,94.9-19.2s94.9,8.5,94.9,19.2V66.1
	C345.6,56.5,302.9,49.1,250.7,49.1z"/>
</svg>
