<svg id="Flat" height="512" viewBox="0 0 64 64" width="512" xmlns="http://www.w3.org/2000/svg"><path d="m49 10.566h8v34h-8z" fill="#2298d1" transform="matrix(.985 -.171 .171 .985 -3.935 9.474)"/><path d="m7 11h10v34h-10z" fill="#f8f8fe"/><path d="m14 11h3v34h-3z" fill="#e3e3ff"/><path d="m17 15h8v30h-8z" fill="#af1b1b"/><path d="m25 13h12v32h-12z" fill="#f8cc5c"/><path d="m37 7h8v38h-8z" fill="#b1a6d8"/><path d="m17 20h8v14h-8z" fill="#ce3d36"/><path d="m17 38h8v7h-8z" fill="#ce3d36"/><path d="m29 21h4v14h-4z" fill="#fff"/><path d="m25 41h12v4h-12z" fill="#d8aa44"/><path d="m25 13h12v4h-12z" fill="#d8aa44"/><path d="m10 15h4v2h-4z" fill="#b1a6d8"/><path d="m10 19h4v2h-4z" fill="#b1a6d8"/><path d="m7 41h10v4h-10z" fill="#b1a6d8"/><g fill="#fff"><path d="m40 12h2v2h-2z"/><path d="m40 16h2v11h-2z"/><path d="m40 29h2v2h-2z"/><path d="m40 33h2v4h-2z"/></g><path d="m48.145 20.64h8v4h-8z" fill="#f8f8fe" transform="matrix(.985 -.171 .171 .985 -3.105 9.256)"/><path d="m53.882 37.404h2v2h-2z" fill="#f8f8fe" transform="matrix(.985 -.171 .171 .985 -5.756 9.944)"/><path d="m26 48h-22v-32h-2v33a1 1 0 0 0 1 1v6a6.994 6.994 0 0 0 6.92-6h16.08z" fill="#376de3"/><path d="m54 49a7 7 0 0 0 7 7v-7z" fill="#376de3"/></svg>