<?xml version="1.0" encoding="iso-8859-1"?>
<!-- Generator: Adobe Illustrator 19.0.0, SVG Export Plug-In . SVG Version: 6.00 Build 0)  -->
<svg version="1.1" id="Capa_1" xmlns="http://www.w3.org/2000/svg" xmlns:xlink="http://www.w3.org/1999/xlink" x="0px" y="0px"
	 viewBox="0 0 426.667 426.667" style="enable-background:new 0 0 426.667 426.667;" xml:space="preserve">
<rect x="42.347" y="141.228" style="fill:#E56353;" width="334.464" height="243.328"/>
<rect y="384.514" style="fill:#FCD462;" width="426.667" height="27.038"/>
<rect y="396.631" style="fill:#F6C358;" width="426.667" height="14.933"/>
<polygon style="fill:#FCD462;" points="417.278,141.216 2.109,141.216 52.212,15.102 367.175,15.102 "/>
<rect x="69.824" y="162.067" style="fill:#D5D6DB;" width="73.365" height="53.295"/>
<polygon style="fill:#EBF0F3;" points="69.822,215.363 69.822,162.066 143.185,162.066 "/>
<rect x="168.192" y="264.271" style="fill:#D15241;" width="82.769" height="120.277"/>
<rect x="171.008" y="269.143" style="fill:#2D93BA;" width="77.099" height="110.481"/>
<polygon style="fill:#27A2DB;" points="171.024,379.641 171.024,269.161 248.117,269.161 "/>
<rect x="175.232" y="312.151" style="fill:#D15241;" width="4.19" height="23.753"/>
<rect x="168.192" y="264.271" style="fill:#FCD462;" width="82.769" height="120.277"/>
<rect x="171.008" y="269.143" style="fill:#D5D6DB;" width="77.099" height="110.481"/>
<polygon style="fill:#EBF0F3;" points="171.024,379.641 171.024,269.161 248.117,269.161 "/>
<rect x="175.232" y="316.034" style="fill:#FCD462;" width="4.19" height="23.753"/>
<rect x="173.013" y="162.067" style="fill:#D5D6DB;" width="73.365" height="53.295"/>
<polygon style="fill:#EBF0F3;" points="173.012,215.363 173.012,162.066 246.375,162.066 "/>
<rect x="273.323" y="162.067" style="fill:#D5D6DB;" width="73.365" height="53.295"/>
<polygon style="fill:#EBF0F3;" points="273.317,215.363 273.317,162.066 346.68,162.066 "/>
<rect x="69.824" y="264.258" style="fill:#D5D6DB;" width="73.365" height="53.295"/>
<polygon style="fill:#EBF0F3;" points="69.822,317.556 69.822,264.259 143.185,264.259 "/>
<rect x="273.323" y="264.258" style="fill:#D5D6DB;" width="73.365" height="53.295"/>
<polygon style="fill:#EBF0F3;" points="273.317,317.556 273.317,264.259 346.68,264.259 "/>
<g>
</g>
<g>
</g>
<g>
</g>
<g>
</g>
<g>
</g>
<g>
</g>
<g>
</g>
<g>
</g>
<g>
</g>
<g>
</g>
<g>
</g>
<g>
</g>
<g>
</g>
<g>
</g>
<g>
</g>
</svg>
