<svg viewBox="1 -1 511.99995 511" xmlns="http://www.w3.org/2000/svg"><path d="m392.503906 153.851562v-153.351562h-273.007812v153.351562h-119.496094v356.492188h512v-356.492188zm0 89.621094h29.875v29.871094h-29.875zm-243.136718-213.097656h213.265624v242.96875h-213.265624zm332.757812 450.09375h-452.25v-119.492188h452.25zm0-149.367188h-452.25v-147.375h89.621094v29.871094h-59.75v89.621094h392.507812v-89.621094h-59.75v-29.871094h89.621094zm-362.628906-87.628906v29.871094h-29.875v-29.871094zm0 0"/><path d="m196.253906 84.644531h29.871094v44.808594h-29.871094zm0 0"/><path d="m285.875 84.644531h29.871094v44.808594h-29.871094zm0 0"/><path d="m256 159.328125c-32.945312 0-59.746094 26.800781-59.746094 59.746094h29.871094c0-16.472657 13.402344-29.871094 29.875-29.871094s29.875 13.398437 29.875 29.871094h29.871094c0-32.945313-26.800782-59.746094-59.746094-59.746094zm0 0"/></svg>