<?xml version="1.0" encoding="utf-8"?>
<!-- Generator: Adobe Illustrator 22.0.1, SVG Export Plug-In . SVG Version: 6.00 Build 0)  -->
<svg version="1.1" id="Layer_1" xmlns="http://www.w3.org/2000/svg" xmlns:xlink="http://www.w3.org/1999/xlink" x="0px" y="0px"
	 viewBox="0 0 379.8 383.4" style="enable-background:new 0 0 379.8 383.4;" xml:space="preserve">
<style type="text/css">
	.st0{display:none;}
	.st1{stroke:#BD9D4A;stroke-width:0.75;stroke-miterlimit:10;}
	.st2{fill:#BF9E47;}
	.st3{fill:#FEE14C;}
	.st4{fill:#BD9D4A;stroke:#000000;stroke-miterlimit:10;}
	.st5{fill:none;stroke:#000000;stroke-miterlimit:10;}
	.st6{fill:#2CA94A;}
	.st7{fill:#EE232A;}
	.st8{fill:#FFFFFF;}
	.st9{fill:none;}
	.st10{font-family:'CenturyGothic';}
	.st11{font-size:11.6888px;}
	.st12{fill:#BD9D4A;}
	.st13{font-family:'ArialMT';}
	.st14{font-size:14.1039px;}
	.st15{font-size:17.3574px;}
</style>
<image style="display:none;overflow:visible;" width="420" height="413" xlink:href="295953C8.jpg"  transform="matrix(0.7499 0 0 0.7499 -649.7368 128.8898)">
</image>
<path class="st0" d="M-583.1,348.6"/>
<g>
	<g>
		<path d="M348.9,302.1c-0.3-1.2-11.5-15.5-11.5-15.5c-10-10.7,4-11.6,5.8-11.2c0.1,0,0.2,0,0.2,0c-24.1-21.4-57-20.7-57-20.7
			l25.5,24.7c-8.1,8.1-12.8,12.6-14.1,13.6c-0.3,0.2-0.2,0.6,0.1,0.9c11.9,9.1,49.2,12.7,49.2,12.7
			C350.2,306.3,348.9,302.1,348.9,302.1z"/>
		<path d="M309.5,279.7l-25.8-24.9c-24,22.6-55.6,36.3-90.4,36.3c-0.2,0-0.4,0-0.6,0c-0.2,0-0.4,0-0.6,0
			c-34.7,0-66.4-13.7-90.4-36.3L76,279.7c27.8,31.4,69.8,51.5,116.8,51.7C239.7,331.2,281.7,311.1,309.5,279.7z"/>
		<path d="M73.6,279.5l25.5-24.7c0,0-33-0.7-57,20.7c0,0,0.1,0,0.2,0C44,275,58,276,48,286.6c0,0-11.2,14.3-11.5,15.5
			c0,0-1.3,4.2,2,4.6c0,0,37.3-3.7,49.2-12.7c0.3-0.2,0.4-0.6,0.1-0.9C86.4,292.1,81.8,287.6,73.6,279.5z"/>
	</g>
	<path class="st1" d="M245.5,270.6c-1.2-0.2-2.8,0.3-3.9,0.9c-0.5,0.3-0.9,0.5-1.4,0.7c-1.5,0.5-4.3,1.4-5.1,0.7
		c-1.1-1-2.9-3.9-1.8-6.2c1.1-2.3,4.8-3.9,4.8-3.9l0,0l0,0l-0.1-0.2l-21.8,7.3l0,0.2l0,0l0,0c0,0,3.9-0.8,6,0.4
		c2.1,1.2,2.1,4.7,1.7,6.2c-0.3,1.1-3.1,2.1-4.6,2.6c-0.5,0.2-1,0.3-1.6,0.3c-1.2,0.1-2.8,0.7-3.7,1.6c-0.8,0.8-0.1,4.2,0.2,4.6
		l5,6.9l0,0l0,0l-1-8c-0.1-0.5,0.2-1,0.6-1.2c1.7-1.1,3.8-1.8,5.1-3.4c0.7-0.8,1.2-1.6,2-1.6c0.6,0,1.1,0,1.7,0.7c0,0,0,0.1,0,0.1
		l0,0.1l6.1,11.4l0,0l0,0l0,0l0,0l0,0l0,0l-0.7-13.2l0-0.1c0,0,0-0.1,0-0.1c0.1-0.9,0.5-1.2,1-1.6c0.6-0.5,1.4-0.2,2.5,0.1
		c1.9,0.5,4-0.1,6-0.3c0.4,0,0.9,0.2,1.1,0.7l3.3,7.2l0,0l0,0l0.7-8.8C247.7,274,246.5,270.8,245.5,270.6z"/>
	<path class="st1" d="M171.5,280.8c-0.8-0.9-2.5-1.5-3.6-1.6c-0.5-0.1-1.1-0.2-1.6-0.3c-1.5-0.5-4.3-1.5-4.5-2.6
		c-0.3-1.5,0-4.9,2.3-6c2.3-1.1,6.2-0.3,6.2-0.3l0,0l0,0l0.1-0.2l-21.8-7.4l-0.1,0.2l0,0l0,0c0,0,3.6,1.7,4.5,3.9c1,2.2-1.2,5-2.4,6
		c-0.9,0.7-3.7-0.2-5.2-0.7c-0.5-0.2-1-0.4-1.4-0.7c-1-0.6-2.7-1.2-3.9-1c-1.1,0.2-2.6,3.3-2.6,3.8l-0.2,8.6l0,0l0,0l4-7
		c0.2-0.4,0.7-0.7,1.2-0.6c2,0.2,4.1,0.8,6.1,0.4c1.1-0.2,1.9-0.5,2.5,0c0.5,0.4,0.9,0.7,0.9,1.5c0,0,0,0.1,0,0.1l0,0.1l-2,12.8l0,0
		l0,0l0,0l0,0l0,0l0,0l7.4-10.9l0-0.1c0,0,0-0.1,0.1-0.1c0.6-0.6,1.2-0.6,1.8-0.6c0.8,0,1.2,0.7,1.9,1.5c1.2,1.6,3.3,2.3,4.9,3.4
		c0.4,0.2,0.6,0.7,0.5,1.2l-1.8,7.7l0,0l0,0l5.9-6.6C171.2,284.9,172.2,281.6,171.5,280.8z"/>
	<path d="M218.8,139.8c-2.2,0-4.3-1.3-5.1-3.4c-0.5-1.3-0.5-1.9-0.5-1.9c-1-5.7-2.1-9.4-2.7-11.1c-0.3-0.8-0.4-1.6-0.6-2.3
		c-3.4-16.7-16.7-17.6-16.7-17.6h-10.3c-8,2-11.1,6.7-11.1,6.7c-10.2,0.6-9,10.6-9,10.6c2.1-2.4,5-3.9,8.3-3.9
		c6.3,0,11.3,5.4,11.3,12.1c0,4.2-2,7.9-5.1,10.1c-1.1,0.7-2.4,1.1-3.7,1.1c0,0,0,0,0,0l-0.5,0l1.7,0.6l5.8,20.4l6-20.4h2.1l4.2,39
		l6-39h2.5l5.4,20.8l6.2-20.8l7.1-0.8L218.8,139.8z"/>
	<ellipse class="st2" cx="181.4" cy="108.7" rx="3.8" ry="1.9"/>
	<polygon points="173.6,140 173.1,140 173.1,140 173.6,140 	"/>
	<path d="M209.9,121"/>
	<path class="st3" d="M183.6,249.7c0,0.1,0,0.1,0,0.2c0,0,0,0,0,0.1L183.6,249.7L183.6,249.7z"/>
	<path class="st4" d="M266.5,211.7c17.8-17.8,28.7-42.1,28.7-68.8c0-10.7-1.8-21.1-5-30.8c-1,8.3-2.8,16.3-5.3,24
		c0.6-3.7,1-7.4,1-11.3c0-20.1-9.3-38.4-24.4-52.1c3.2,9.2,5,19.1,5,29.5c0,1.6-0.1,3.2-0.1,4.8c-3.3-20.2-20-37.1-42.9-45.1
		C235,72.3,248,86,248,103.2c0,12.5-5.1,22.5-13.6,30.7c-3.9,3.7-9,5.8-14.4,5.8l-7.1,0.8l-6.2,20.8l-5.4-20.8h-2.5l-6,39l-4.2-39
		h-2.1l-6,20.4l-5.8-20.4l-1.7-0.6l-6.9,0c-5.3,0-10.5-1.9-14.5-5.5c-9.1-8.3-14.8-18.7-13.4-31.3c1.9-16.5,12.7-31.2,24.6-41.3
		c-22.9,8-39.5,24.9-42.9,45c-0.1-1.5-0.1-3.1-0.1-4.7c0-10.4,1.8-20.4,5-29.5c-15.2,13.7-24.4,32-24.4,52.1c0,2.7,0.2,5.4,0.5,8.1
		c-2.1-7-3.6-14.3-4.4-21.8c-3.5,10-5.4,20.7-5.4,31.8c0,26.3,10.6,50.3,27.9,68c-7.5-6.3-14.4-13.4-20.6-21.4
		c11.5,24.3,32.4,43.4,58.1,52.9l-0.3,0.7l-9.5,18.9l25.9,8.8h0.3l0,0l3.2-17.6l0.7-3.7c0.1-0.2,0.3-0.4,0.6-0.4
		c0.4,0,0.6,0.3,0.7,0.6l-0.2,3.5l-0.6,14.5h4.9l1.1-14.5l0.1-2h0v0l0-0.2l0.1-0.9c0,0,0,0,0-0.1c0-0.1,0-0.1,0-0.2h0l0,0.2
		c0,0,0,0,0,0c0-0.7,0.6-1.3,1.4-1.3c0.7,0,1.3,0.6,1.4,1.3v0.9v0.3h0v1.9v15h5.4v-15v-1.9v-1.3c0,0,0,0.1,0,0.1
		c0.1-0.8,0.7-1.4,1.5-1.4s1.5,0.6,1.5,1.4c0,0,0,0,0-0.1v1.2h0v1.9v15h5.4v-15v-1.9v-1.3c0,0,0,0,0,0.1c0-0.7,0.6-1.3,1.4-1.3
		c0.7,0,1.3,0.6,1.4,1.3c0,0,0,0,0,0h0l0.2,3.2l1.1,14.5h4.9l-0.6-14.5l-0.2-3.5c0-0.3,0.3-0.6,0.7-0.6c0.3,0,0.5,0.2,0.6,0.4
		l0.7,3.7l3.2,17.6l25.9-8.8l-9-18l0,0l-0.7-1.5c25.7-9.4,46.6-28.5,58.1-52.7C281.4,197.9,274.3,205.3,266.5,211.7z"/>
	<g>
		<path class="st5" d="M266.2,105c1.1,18.6-5.5,37-17.2,51.4c-5.2,6.4-11.3,11.9-17.9,16.8"/>
		<path class="st5" d="M285.1,134.7c-2.3,8.9-6,19.2-10.7,27.1c-7.2,11.9-16.9,22.3-28.1,30.6c-8.1,6.1-17.1,11.1-26.4,15.1"/>
		<path class="st5" d="M268.7,209.6c-17.5,15.7-39.3,25.8-61.8,32.1"/>
		<path class="st5" d="M120.1,105.6c-2.7,27.7,14.5,51.7,35.3,67.6"/>
		<path class="st5" d="M100.6,131.1c7.1,34.3,34.1,63.3,65.9,76.4"/>
		<path class="st5" d="M116.3,208.4c12.3,11.2,27.1,19.6,42.4,25.9c6.6,2.7,13.4,5,20.2,6.9"/>
	</g>
	<path class="st6" d="M179.7,69.9l-3,1.9l6.4,6.4l1.7-2.8C182.7,74,181,72.1,179.7,69.9z"/>
	<path class="st7" d="M178,57.7l-11,3.9l10.8,3.4c-0.2-1-0.3-2-0.3-3C177.4,60.4,177.6,59,178,57.7z"/>
	<path class="st6" d="M207.5,53l3.1-1.9l-6.4-6.4l-2,3.3C204.3,49.2,206.1,50.9,207.5,53z"/>
	<path class="st7" d="M197.5,46.1l-3.7-11.7l-4.1,11.8c1.3-0.3,2.6-0.5,4-0.5C195,45.6,196.3,45.8,197.5,46.1z"/>
	<path class="st6" d="M185.3,48.1l-1.9-3.1l-6.4,6.4l3.1,1.9C181.4,51.2,183.2,49.4,185.3,48.1z"/>
	<path class="st6" d="M202.9,75.3l1.8,2.9l6.4-6.4l-3.2-2C206.6,72,204.9,73.9,202.9,75.3z"/>
	<path class="st7" d="M209.7,64.9l10.8-3.4l-11-3.9c0.4,1.4,0.6,2.8,0.6,4.3C209.9,62.9,209.8,64,209.7,64.9z"/>
	<path class="st7" d="M189.6,77.7l4.1,11.8l3.7-11.7c-1.2,0.3-2.5,0.5-3.8,0.5C192.3,78.2,190.9,78,189.6,77.7z"/>
	<path class="st3" d="M209.6,57.6c-0.5-1.7-1.2-3.3-2.1-4.8c-1.4-2.1-3.2-3.8-5.4-5.1c-1.4-0.8-2.9-1.5-4.6-1.9
		c-1.3-0.3-2.6-0.5-3.9-0.5c-1.4,0-2.8,0.2-4.1,0.5c-1.7,0.4-3.2,1.1-4.7,2c-2.1,1.3-4,3.1-5.3,5.3c-0.8,1.4-1.5,2.8-1.9,4.4
		c-0.4,1.4-0.6,2.8-0.6,4.3c0,1,0.1,2.1,0.3,3.1c0.3,1.8,1,3.5,1.9,5.1c1.3,2.2,3,4.2,5.2,5.6c1.6,1.1,3.3,1.8,5.2,2.3
		c1.3,0.3,2.7,0.5,4.1,0.5c1.3,0,2.6-0.2,3.9-0.5c2-0.5,3.8-1.3,5.5-2.4c2.1-1.4,3.8-3.4,5.1-5.6c0.9-1.5,1.5-3.2,1.8-5
		c0.2-1,0.3-2,0.3-3.1C210.2,60.4,210,59,209.6,57.6z"/>
	<g>
		<g>
			<path class="st8" d="M127.7,282.9c-0.3,1.5-0.7,2.8-1.7,4.1c-0.6,0.9-1.7,1.7-2.3,1.8c-1.4,0.3-3,0.1-4.1-0.6
				c-1.7-1.1-1.9-2.9-0.7-4.3c0.9-1.1,1.9-1.6,2.8-1.9c0.1,0.2,0.1,0.2,0.2,0.4c-0.7,0.3-1.5,0.9-1.8,1.2c-0.6,0.7-0.7,1.3-0.6,1.8
				c0.1,0.6,0.6,1.2,1.2,1.7c0.7,0.5,1.9,0.7,2.8,0.6c0.6-0.1,1-0.2,1.2-0.3c0.4-0.6,0.7-1.2,0.9-1.7c0.3-0.8,0.5-1.5,0.6-2.1
				C126.6,283.4,127.1,283.1,127.7,282.9C127.6,282.9,127.7,282.9,127.7,282.9z M127.5,278.8c0.1,0.5,0.2,1,0.3,1.5
				c-0.4,0.2-0.9,0.3-1.4,0.4c-0.1-0.5-0.2-1-0.3-1.5C126.6,279.1,127.1,278.9,127.5,278.8z"/>
			<path class="st8" d="M129,290.8c0,0-0.1,0-0.1-0.1c-0.7-0.4-1.1-0.8-1.2-1.4c-0.2-0.9,0.3-1.5,1.2-2.8c1.2-1.7,2.3-3.5,3.5-5.4
				c0.5-0.2,1-0.3,1.4-0.4c0,0,0,0,0,0.1c-1.2,2-2.8,4.3-4.3,6.4c-0.1,0.2-0.2,0.3-0.4,0.5c-0.4,0.6-0.2,1,0,1.3
				c0.2,0.2,0.4,0.4,0.5,0.4c0.1,0,0.1,0,0.1,0.1C129.4,290.1,129.3,290.3,129,290.8z"/>
			<path class="st8" d="M130,289.8c0.7,0.4,1.6,0.5,2.1,0.1c0.4-0.3,0.5-0.5,0.9-0.8c0.4,0,0.6-0.1,0.9-0.1c0,0,0,0.1,0,0.1
				c-0.4,0.4-0.7,0.7-0.9,0.9c-0.2,0.3-0.3,0.6-0.2,0.9c0.1,0.4,0.4,0.7,0.9,0.9c0.1,0,0.1,0,0.2,0.1c-0.3,0.5-0.4,0.7-0.7,1.2
				c-0.1,0-0.1-0.1-0.2-0.1c-0.9-0.5-1.5-1.1-1.4-1.9c0,0,0,0,0,0c-0.7,0.4-1.7,0.4-2.5-0.1c-0.1,0-0.1-0.1-0.2-0.1
				c-0.5-0.3-0.4-0.7-0.2-0.9c0.1-0.2,0.5-0.5,1-0.2C129.8,289.7,129.9,289.7,130,289.8z M133.2,286.9c-0.1-0.5-0.3-1-0.4-1.5
				c0.4-0.2,0.9-0.4,1.3-0.5c0.2,0.5,0.3,0.9,0.4,1.5C134,286.7,133.6,286.8,133.2,286.9z M135,287.7c-0.1-0.5-0.3-1-0.4-1.5
				c0.4-0.2,0.9-0.4,1.3-0.5c0.2,0.5,0.3,0.9,0.4,1.5C135.8,287.4,135.4,287.6,135,287.7z"/>
			<path class="st8" d="M143.1,292.5c-0.3,0.8-0.5,1.3-0.7,1.7c-0.2,0.4-0.7,0.9-1,1.1c-0.7,0.4-1.4,0.7-2,0.4
				c-0.4-0.2-0.7-0.7-0.8-1.3c0,0,0,0-0.1,0c-0.7,0.3-1.4,0.4-2.1,0c-0.5-0.2-0.7-0.6-0.5-1.2c0,0,0,0,0,0c-1,0.4-1.9,0.1-2.5-0.2
				c-0.1,0-0.1,0-0.2-0.1c-0.5-0.3-0.4-0.7-0.3-0.9c0.1-0.2,0.5-0.5,1-0.2c0.1,0.1,0.2,0.1,0.3,0.2c0.9,0.4,1.7,0.5,2.5,0.1
				c0.4-0.2,0.6-0.3,0.9-0.5c0.3,0,0.5,0,0.9,0.1c0,0,0,0,0,0.1c-0.7,0.4-1.2,0.8-1.4,1c-0.2,0.3-0.1,0.6,0.2,0.7
				c0.3,0.1,0.6,0.2,1,0.1c0.5-0.1,0.7-0.3,1.5-1.2c0.3,0,0.4,0,0.7-0.1c0,0,0,0,0,0.1c-0.2,0.3-0.5,0.6-0.6,0.9
				c-0.4,0.7-0.1,1.3,0.4,1.5c0.3,0.1,0.6,0.1,0.7-0.2c0.2-0.4,0.4-1,0.6-1.6C142.2,292.7,142.7,292.5,143.1,292.5
				C143.1,292.4,143.1,292.4,143.1,292.5z"/>
			<path class="st8" d="M144.6,294.8c-0.4,0.8-0.4,1.6,0.9,2.1c0.8,0.3,1.5,0.3,2.4,0.2c0.2,0,0.3-0.1,0.3-0.2
				c0.2-0.5,0.2-1.3-0.1-2.2c-0.3-0.8-0.7-1.6-1.2-2.2c-0.2-0.2-0.2-0.4-0.1-0.5c0.1-0.2,0.6-0.6,1-0.9c0,0,0,0,0.1,0
				c0.5,0.8,1,1.8,1.3,2.8c0.2,0.9,0.3,1.8-0.1,2.6c-0.3,0.6-0.7,1.1-1.2,1.5c-1.1,0.2-2.2,0.2-3.2-0.1c-1.1-0.4-1.6-1.3-0.9-2.7
				c0.1-0.2,0.2-0.4,0.4-0.7C144.4,294.8,144.5,294.8,144.6,294.8z"/>
			<path class="st8" d="M153.4,295.3c0.1,0.6,0.1,0.9,0.1,1.5c0.1,0.6,0.1,1.2-0.3,2c-0.2,0.4-0.3,0.6-0.4,1.1
				c-0.3,0.9-1.2,1.7-2.4,2.3c-0.8,0.4-1.5,0.5-2.1,0.3c-0.8-0.3-1.5-0.8-2.3-1.7c0.1-0.1,0.2-0.2,0.3-0.3c0.3,0.2,0.6,0.4,1,0.6
				c1.4,0.5,3.4-0.2,4.6-1.4c0.1-0.1,0.2-0.3,0.3-0.4c0.1-0.2,0.1-0.4,0.1-0.6c0-0.9-0.1-1.7-0.3-2.5
				C152.6,295.9,153,295.6,153.4,295.3C153.4,295.2,153.4,295.3,153.4,295.3z"/>
			<path class="st8" d="M160.2,301.4c-0.2,0.5-0.2,0.8-0.4,1.3c-0.3-0.1-0.5-0.1-0.8-0.2c-0.3,0.6-0.8,1.3-1.5,1.8
				c-1.2,0.9-2.6,1.2-3.1,1c-1-0.3-1.9-1-2.6-1.9c0.1-0.1,0.2-0.2,0.3-0.3c0.3,0.3,0.8,0.6,1.4,0.8c1,0.3,2.2,0.1,3.4-0.5
				c0.7-0.4,1.1-0.7,1.4-1.1c-0.2-0.1-0.3-0.1-0.5-0.1c-2.1-0.6-2.9-1.5-2.4-2.9c0.3-0.7,0.7-1.1,1.1-1.4c0.6-0.4,1.2-0.7,1.8-0.5
				c0.9,0.2,1.4,1.8,1,3.9C159.7,301.3,159.9,301.4,160.2,301.4z M158.4,299.4c-0.2-0.4-0.5-0.7-0.9-0.8c-0.6-0.2-1.3,0.2-1.4,0.5
				c-0.2,0.5,0.2,0.9,0.7,1.3c0.5,0.3,1.1,0.5,1.8,0.6C158.7,300.4,158.6,299.8,158.4,299.4z"/>
			<path class="st8" d="M169.1,293.3c-0.3,0.4-0.7,1-1,1.1c-0.3,0.1-1.1,0.1-1.7,0.2c-1.1,0.1-2.3,0.3-3.5,0.6c0,0,0,0,0,0
				c0.5,0.4,0.8,0.6,1.4,1c-0.2,0.2-0.2,0.3-0.4,0.4c1.1,1.6,1.8,3.1,1.5,4.2c-0.3,0.9-0.7,1.6-1.2,1.9c-0.8,0.4-1.9,0.6-3.9,0.1
				c-0.2,0-0.2-0.1-0.4-0.1c-0.6-0.1-0.6-0.6-0.5-0.9c0.1-0.2,0.4-0.6,0.9-0.4c0.3,0.1,0.4,0.1,0.6,0.2c1,0.3,2,0.4,2.9,0.1
				c0.4-0.1,0.7-0.3,0.7-0.4c0.1-0.5,0-1.1-0.3-1.7c-0.3-0.7-0.9-1.9-2.1-3.5c-0.2-0.3-0.2-0.7,0-1c0.1-0.2,0.2-0.4,0.4-0.6
				c0.2-0.2,0.4-0.3,0.9-0.4C164.7,293.8,166.7,293.5,169.1,293.3C169,293.3,169,293.3,169.1,293.3z"/>
			<path class="st8" d="M181.4,305.1c-0.1,0.5-0.1,0.8-0.2,1.3c-0.2,0-0.4,0-0.6-0.1c0,0.3,0,0.5-0.1,0.7c0,0.3-0.5,1-0.6,1.2
				c-1.5,1.1-3.7,1.5-5.3,1.3c-1.4-0.2-2.3-0.8-2.7-1.5c-0.5-0.8-0.6-1.8-0.3-3c0.2-1,0.9-2.3,1.7-3.2c0.1,0.1,0.2,0.1,0.4,0.2
				c-0.6,1-1,1.8-1.1,2.5c-0.2,0.9-0.1,1.7,0.4,2.4c0.5,0.7,1.4,1.2,2.4,1.3c1,0.1,2.2,0,3.5-0.5c0.5-0.2,0.9-0.4,1.1-0.6
				c-0.2-0.5-1.3-1.1-2.9-1.3c0-0.1,0-0.1,0-0.2c0.4-0.4,0.5-0.6,0.9-1.1C179.2,304.9,179.9,305,181.4,305.1z"/>
			<path class="st8" d="M181.6,305.1c1.1,0.1,1.5-0.4,1.9-1.4c0.5-1.3,1.4-1.9,2.1-1.8c0.5,0,0.9,0.2,1.2,0.8c0.2,0.4,0.4,0.8,0.9,2
				c0.2,0.5,0.7,0.9,1.6,0.9c0.1,0,0.1,0,0.2,0c0,0.5,0,0.8-0.1,1.3c-0.1,0-0.1,0-0.2,0c-0.6,0-1.2-0.3-1.6-1c0,0,0,0,0,0
				c-0.1,0.3-0.2,0.6-0.4,0.8c-0.2,0.2-0.5,0.3-0.7,0.3c-0.8,0-2.1-0.7-2.8-1.7c0,0,0,0,0,0c-0.4,0.6-1.1,1.1-2.2,1
				c-0.1,0-0.1,0-0.2,0c-0.6-0.1-0.7-0.5-0.6-0.8c0-0.2,0.2-0.6,0.8-0.6C181.5,305.1,181.5,305.1,181.6,305.1z M185.2,305.2
				c0.4,0.3,1,0.5,1.4,0.5c0.2,0,0.4,0,0.4-0.2c0-0.4-0.2-1-0.4-1.4c-0.4-0.6-0.8-1-1.2-1c-0.6,0-1,0.3-1.3,0.8
				C184.1,304.4,184.7,304.9,185.2,305.2z"/>
			<path class="st8" d="M189.6,305.6c0.9,0,1.6,0,2.1-0.1c0.4-0.1,0.6-0.3,0.6-0.4c0-0.5-0.5-1.5-1-2.6c0.3-0.4,0.5-0.8,0.8-1.2
				c0,0,0,0,0,0c0.4,0.8,1,2.2,1,3.2c0,0.8-0.3,1.4-0.8,1.9c-0.4,0.5-1.2,0.6-2.9,0.5c-0.1,0-0.1,0-0.1,0c-0.6,0-0.7-0.4-0.7-0.7
				c0-0.2,0.2-0.6,0.8-0.6C189.5,305.6,189.5,305.6,189.6,305.6z M190.4,311.1c-0.4-0.4-0.8-0.8-1.2-1.1c0.3-0.4,0.6-0.7,0.9-1
				c0.4,0.3,0.8,0.7,1.2,1.1C190.9,310.6,190.7,310.9,190.4,311.1z M193.4,297.6c-0.9,1.1-1.4,1.8-1.5,2.2c-0.1,0-0.1,0.1-0.2,0.1
				c0-0.4-0.5-1-1.6-2.1c0.1-0.4,0.2-0.6,0.3-1c0,0,0,0,0.1,0c0.8,0.9,1.2,1.5,1.4,1.9c0,0,0,0,0,0c0.2-0.4,0.7-1,1.3-1.9
				C193.3,297.1,193.4,297.3,193.4,297.6z M192.5,311.1c-0.4-0.4-0.8-0.8-1.2-1.1c0.3-0.4,0.6-0.7,0.9-1c0.4,0.3,0.8,0.7,1.2,1.1
				C193.1,310.5,192.8,310.8,192.5,311.1z"/>
			<path class="st8" d="M198,301.7c0.3,0.6,0.5,0.8,0.8,1.4c0.3,0.5,0.6,1.1,0.6,2c0,0.5,0,0.7,0,1.1c0,0.9-0.4,2-1.2,2.9
				c-0.6,0.7-1.2,1-1.8,1c-0.8,0-1.7-0.3-2.8-0.8c0-0.1,0.1-0.2,0.1-0.4c0.3,0.1,0.7,0.2,1.2,0.2c1.5,0,3-1.3,3.7-2.8
				c0.1-0.2,0.1-0.3,0.1-0.5c0-0.2-0.1-0.4-0.2-0.5c-0.4-0.8-0.8-1.6-1.3-2.3C197.5,302.5,197.7,302.1,198,301.7
				C198,301.7,198,301.7,198,301.7z"/>
			<path class="st8" d="M203.1,305.8c-1.1,0.1-1.9-0.3-2-1.1c0-0.3,0.1-0.7,0.3-1.2c0.4-0.9,1.4-1.9,3-3c-0.1-0.3-0.1-0.5-0.1-0.8
				c0.2-0.3,0.5-0.6,0.7-0.9c0,0,0.1,0,0.1,0c0.2,1.6,0.4,3.2,0.5,4.8c0.1,0.7,0.2,1.2,0.5,1.4c0.3,0.2,0.7,0.2,1.1,0.2
				c0.1,0,0.1,0,0.2,0c0.1,0.5,0.1,0.8,0.2,1.3c-0.1,0-0.1,0-0.2,0c-1,0.1-1.8-0.1-2.3-1.3C204.6,305.6,203.9,305.8,203.1,305.8z
				 M204.6,301.6c-1.7,1.1-2.6,1.9-2.6,2.4c0,0.4,0.7,0.5,1.4,0.5c0.4,0,0.9-0.2,1.5-0.4C204.8,303.1,204.7,302.6,204.6,301.6z"/>
			<path class="st8" d="M207.7,305.2c0.5,0,1.2-0.2,1.8-0.5c-0.2-0.4-0.3-0.9-0.4-1.4c-0.1-0.6,0-1.3,0.4-1.9
				c0.2-0.4,0.5-0.8,0.8-1.1c0-0.3,0-0.7,0-1c0,0,0,0,0.1,0c1.1,0.8,2.6,1.6,4,2.3c1,0.6,1.5,1.1,1.7,2c0.2,1-0.3,2-1.7,2.2
				c-0.9,0.1-2.2,0-3.7-0.3c-1.1,0.6-2,0.9-2.8,1c-0.1,0-0.1,0-0.2,0c-0.6,0.1-0.8-0.3-0.8-0.6c0-0.2,0.1-0.6,0.7-0.7
				C207.6,305.2,207.7,305.2,207.7,305.2z M212.4,302.9c-0.1-0.9-0.9-1.6-1.3-1.5c-0.8,0.1-1.5,1.3-1.4,1.8c0,0.3,0.5,0.8,1.3,1.1
				C211.4,304,212.5,303.4,212.4,302.9z M214.5,304.5c0.6-0.1,1.1-0.4,1-0.6c-0.1-0.7-1.2-1.3-2.6-1.9c0.1,0.8-0.1,1.6-0.4,2.5
				C213.1,304.6,213.7,304.7,214.5,304.5z"/>
			<path class="st8" d="M231.4,300.9c0.2,0.5,0.3,0.8,0.4,1.3c-0.2,0.1-0.4,0.1-0.6,0.2c0.1,0.3,0.2,0.5,0.3,0.7
				c0.1,0.3,0,1.1,0,1.4c-1,1.5-2.8,2.7-4.3,3c-1.4,0.3-2.4,0.1-3.2-0.5c-0.8-0.6-1.3-1.5-1.6-2.6c-0.3-1-0.2-2.5,0.1-3.5
				c0.2,0,0.3,0.1,0.4,0.1c-0.2,1.1-0.1,2,0,2.7c0.2,0.9,0.7,1.6,1.4,2c0.8,0.5,1.8,0.6,2.8,0.4c1-0.2,2-0.8,3.1-1.7
				c0.4-0.4,0.7-0.7,0.7-0.9c-0.4-0.4-1.6-0.6-3.3-0.2c0-0.1-0.1-0.1-0.1-0.1c0.1-0.5,0.2-0.8,0.4-1.3
				C229.3,301.5,230,301.3,231.4,300.9z"/>
			<path class="st8" d="M231.6,300.9c0.9-0.2,1.5-0.5,1.9-0.7c0.3-0.2,0.5-0.4,0.4-0.6c-0.2-0.5-1-1.3-1.9-2.2
				c0.1-0.5,0.2-0.9,0.3-1.3c0,0,0,0,0,0c0.7,0.7,1.7,1.7,2.1,2.7c0.3,0.7,0.2,1.5,0,2c-0.2,0.6-1,0.9-2.5,1.4c0,0-0.1,0-0.1,0
				c-0.6,0.2-0.8-0.2-0.9-0.5c-0.1-0.2,0-0.6,0.5-0.8C231.5,300.9,231.5,300.9,231.6,300.9z M230.6,295.7c-0.5-0.3-1-0.5-1.5-0.7
				c0.1-0.4,0.3-0.8,0.4-1.1c0.5,0.2,0.9,0.4,1.5,0.8C230.8,295,230.7,295.3,230.6,295.7z M232.4,295c-0.5-0.3-1-0.5-1.5-0.7
				c0.1-0.4,0.3-0.8,0.4-1.1c0.5,0.2,0.9,0.4,1.5,0.7C232.6,294.4,232.5,294.7,232.4,295z"/>
			<path class="st8" d="M238.7,299.1c-1,0.3-2,0.2-2.3-0.6c-0.1-0.3-0.2-0.7-0.1-1.2c0.1-1,0.7-2.2,1.9-3.7
				c-0.1-0.3-0.2-0.4-0.4-0.7c0.1-0.4,0.2-0.7,0.4-1c0,0,0.1,0,0.1,0c0.7,1.5,1.4,3,2.1,4.5c0.3,0.7,0.6,1.1,1,1.2
				c0.3,0.1,0.7,0,1.1-0.1c0.1,0,0.1-0.1,0.2-0.1c0.2,0.5,0.3,0.7,0.6,1.2c-0.1,0-0.1,0-0.2,0.1c-1,0.4-1.8,0.3-2.7-0.6
				C240,298.5,239.4,298.9,238.7,299.1z M238.7,294.7c-1.3,1.5-1.9,2.5-1.7,3c0.2,0.4,0.8,0.4,1.5,0.1c0.4-0.1,0.8-0.4,1.3-0.8
				C239.4,296.1,239.2,295.7,238.7,294.7z"/>
			<path class="st8" d="M243,297.3c0.7-0.3,1.1-1,0.8-2.3c-0.1-0.4,0-0.9,0.1-1.4c0.2-0.4,0.5-0.8,0.9-1c1.1-0.5,3,1,3.7,2.4
				c0.3,0.7,0.1,1.4-0.4,1.6c-1,0.4-2.2,0.4-3.5,0c0,0,0,0-0.1,0c0.2,0.9-0.2,1.6-1.1,1.9c-0.1,0-0.1,0-0.2,0.1
				c-0.5,0.2-0.9-0.1-1-0.4c-0.1-0.2-0.1-0.6,0.4-0.8C242.8,297.3,242.9,297.3,243,297.3z M246.2,295.6c0.4,0,0.9,0,1.3-0.2
				c0.1-0.1,0.3-0.1,0.3-0.2c-1-1.3-2-1.7-2.6-1.4c-0.5,0.2-0.8,0.7-0.8,1.4C244.8,295.5,245.5,295.6,246.2,295.6z"/>
			<path class="st8" d="M255.4,292c0.3,0.5,0.4,0.7,0.7,1.2c-0.3,0.2-0.5,0.2-0.8,0.4c0.3,0.6,0.5,1.5,0.4,2.2
				c-0.1,1.4-0.9,2.4-1.5,2.7c-0.9,0.4-2.1,0.5-3.4,0.3c0-0.2,0-0.2,0-0.4c0.5,0,1,0,1.6-0.3c1-0.4,1.6-1.3,2-2.5
				c0.2-0.7,0.3-1.2,0.1-1.7c-0.2,0.1-0.3,0.1-0.5,0.2c-2,0.9-3.3,0.7-4-0.6c-0.4-0.6-0.4-1.2-0.4-1.7c0.1-0.7,0.3-1.3,0.9-1.5
				c0.8-0.4,2.4,0.4,3.8,2.1C254.9,292.3,255,292.2,255.4,292z M252.4,291.7c-0.5-0.2-0.9-0.2-1.3-0.1c-0.5,0.2-0.8,0.9-0.6,1.3
				c0.3,0.5,0.9,0.6,1.6,0.5c0.6-0.1,1.2-0.4,1.8-0.7C253.5,292.3,253,291.9,252.4,291.7z"/>
			<path class="st8" d="M263.3,289.4c-0.1,0-0.1,0.1-0.2,0.1c-1.1,0.6-2.2,0.4-3.4-0.1c-0.6-0.2-1.1-0.4-1.5-0.6c0,0,0,0,0,0
				c0.9,1.4,0.8,2.9-1.9,4.2c-0.1,0.1-0.2,0.1-0.3,0.1c-0.5,0.3-0.9,0-1-0.3c-0.1-0.2-0.2-0.6,0.3-0.9c0.2-0.1,0.2-0.1,0.4-0.2
				c0.8-0.4,1.6-1,1.9-1.7c0.1-0.2,0.2-0.5,0.2-0.7c-0.1-0.2-0.3-0.4-0.6-0.5c-0.9-0.6-2.4-1.1-4-1.6c-0.4-0.1-0.7-0.2-0.9-0.3
				c-0.1-0.1-0.3-0.3-0.4-0.5c-0.2-0.3-0.2-0.6-0.2-0.9c0-0.2,0-0.4,0.1-0.5c0.5-1.1,2.1-2.8,3.9-4.8c0,0,0,0,0.1,0
				c0.1,0.5,0.2,1.2,0.1,1.4c-0.1,0.3-1,1.1-1.5,1.7c-0.8,0.9-1.5,1.8-1.9,2.5c0,0,0,0,0,0c0.7,0.1,1.3,0,1.8,0c0,0.2,0,0.4,0,0.6
				c1.5,0.4,3.5,1.1,5.7,1.8c0.9,0.3,1.7,0.3,2.4-0.1c0.1,0,0.1-0.1,0.2-0.1C262.8,288.7,263,288.9,263.3,289.4z"/>
			<path class="st8" d="M263.1,287.9c1.5-0.8,2.6-2.2,3.6-4.4c0,0,0,0,0,0c-1.3,0.3-2.4,0.6-3.2,1.1c-0.5,0.3-0.8,0.7-0.8,1.1
				c0.2,0.1,0.3,0.2,0.4,0.4c0.1,0.4,0.2,0.6,0.3,0.9c0,0-0.1,0-0.1,0.1c-0.5-0.4-0.8-0.5-1.3-0.9c-0.6-1-0.3-2.1,0.8-2.7
				c0.6-0.3,1.6-0.7,3.4-1c0.5-0.1,1.1-0.3,1.7-0.7c0.3-0.2,0.4-0.3,0.7-0.5c0,0,0,0,0,0c0.1,0.5,0.2,0.7,0.3,1.2
				c-0.7,0.5-1.1,0.9-1.3,1.3c-0.3,0.7-0.4,1.1-0.7,1.9c-0.6,1.5-1.6,2.7-3.1,3.5c-0.2,0.1-0.3,0.2-0.5,0.3c-0.5,0.3-0.9,0-1.1-0.2
				c-0.1-0.2-0.2-0.6,0.3-0.9C262.7,288.1,262.9,288.1,263.1,287.9z"/>
			<path class="st8" d="M141.6,308.1c0.1,1.4,0,2.7-0.6,4c-0.4,0.9-1.2,1.8-1.8,2c-1.3,0.5-2.9,0.5-4.2,0c-2-0.8-2.6-2.4-1.8-3.9
				c0.6-1.1,1.4-1.7,2.2-2.2c0.1,0.1,0.2,0.2,0.3,0.3c-0.6,0.4-1.2,1-1.4,1.4c-0.4,0.7-0.3,1.3-0.1,1.8c0.3,0.5,0.9,1.1,1.7,1.4
				c0.8,0.3,2,0.4,2.9,0.2c0.6-0.1,1-0.3,1.1-0.5c0.3-0.6,0.4-1.2,0.4-1.7c0.1-0.8,0.1-1.5,0-2.1
				C140.7,308.6,141.1,308.3,141.6,308.1C141.6,308.1,141.6,308.1,141.6,308.1z M140.3,304.2c0.3,0.4,0.5,0.9,0.7,1.4
				c-0.4,0.2-0.8,0.4-1.2,0.5c-0.2-0.5-0.5-0.9-0.7-1.4C139.5,304.6,139.9,304.4,140.3,304.2z"/>
			<path class="st8" d="M144.7,315.1c0,0-0.1,0-0.1,0c-0.8-0.3-1.3-0.6-1.6-1.1c-0.4-0.8-0.1-1.4,0.4-2.7c0.7-1.7,1.4-3.5,2.1-5.4
				c0.5-0.2,0.9-0.4,1.3-0.5c0,0,0,0,0.1,0.1c-0.7,2-1.7,4.3-2.6,6.5c-0.1,0.2-0.1,0.3-0.2,0.5c-0.2,0.6,0,1,0.4,1.2
				c0.2,0.2,0.5,0.3,0.6,0.3c0.1,0,0.1,0,0.1,0C145,314.4,144.9,314.6,144.7,315.1z"/>
			<path class="st8" d="M145.4,314c0.8,0.3,1.8,0.2,2.1-0.2c0.3-0.4,0.4-0.5,0.7-0.9c0.4-0.1,0.5-0.1,0.9-0.2c0,0,0,0,0,0.1
				c-0.3,0.4-0.6,0.8-0.6,1c-0.1,0.3-0.1,0.6,0.1,0.9c0.2,0.3,0.6,0.6,1.2,0.8c0.1,0,0.1,0,0.2,0.1c-0.2,0.5-0.3,0.7-0.4,1.2
				c-0.1,0-0.1,0-0.2-0.1c-1-0.3-1.7-0.8-1.8-1.6c0,0,0,0,0,0c-0.6,0.5-1.6,0.5-2.5,0.3c-0.1,0-0.1,0-0.2-0.1
				c-0.6-0.2-0.6-0.6-0.5-0.8c0.1-0.2,0.4-0.5,1-0.3C145.2,313.9,145.3,314,145.4,314z M147.9,310.9c-0.3-0.5-0.5-0.9-0.8-1.3
				c0.4-0.2,0.8-0.4,1.1-0.6c0.3,0.4,0.5,0.8,0.8,1.3C148.6,310.6,148.3,310.8,147.9,310.9z M149.9,311.4c-0.3-0.5-0.5-0.9-0.8-1.3
				c0.4-0.2,0.8-0.5,1.1-0.6c0.3,0.4,0.5,0.8,0.8,1.3C150.6,311.1,150.3,311.3,149.9,311.4z"/>
			<path class="st8" d="M159.3,314.8c-0.1,0.7-0.2,1.3-0.3,1.7c-0.1,0.4-0.5,0.9-0.8,1.2c-0.6,0.5-1.3,0.8-1.9,0.6
				c-0.5-0.1-0.9-0.5-1.1-1.1c0,0-0.1,0-0.1,0c-0.6,0.3-1.3,0.5-2.1,0.3c-0.6-0.2-0.9-0.5-0.8-1.1c0,0,0,0,0,0
				c-0.9,0.5-1.8,0.3-2.6,0.1c-0.1,0-0.1,0-0.2-0.1c-0.6-0.2-0.6-0.6-0.5-0.8c0.1-0.2,0.4-0.5,0.9-0.3c0.1,0,0.2,0.1,0.4,0.1
				c1,0.3,1.8,0.3,2.5-0.2c0.3-0.2,0.5-0.3,0.8-0.6c0.4,0,0.5,0,0.9,0c0,0,0,0,0,0.1c-0.6,0.5-1.1,0.9-1.2,1.1
				c-0.1,0.3,0.1,0.5,0.4,0.6c0.3,0.1,0.7,0.1,1,0c0.4-0.1,0.6-0.4,1.2-1.3c0.3-0.1,0.4-0.1,0.7-0.2c0,0,0,0,0.1,0.1
				c-0.2,0.3-0.3,0.6-0.4,0.9c-0.2,0.7,0.3,1.2,0.8,1.3c0.3,0.1,0.6,0,0.7-0.3c0.1-0.4,0.2-1,0.2-1.6
				C158.4,315.2,158.8,315,159.3,314.8C159.3,314.8,159.3,314.8,159.3,314.8z"/>
			<path class="st8" d="M161.1,316.8c-0.2,0.8,0,1.5,1.4,1.8c0.8,0.2,1.6,0.1,2.5-0.1c0.2,0,0.3-0.1,0.3-0.2c0.1-0.5-0.1-1.2-0.6-2
				c-0.5-0.7-1.1-1.4-1.8-1.8c-0.2-0.2-0.3-0.3-0.2-0.4c0.1-0.2,0.5-0.7,0.8-1c0,0,0.1,0,0.1,0c0.7,0.6,1.5,1.5,2,2.4
				c0.5,0.8,0.7,1.6,0.5,2.4c-0.1,0.6-0.4,1.1-0.8,1.6c-1.1,0.3-2.2,0.5-3.2,0.3c-1.2-0.3-1.9-1-1.5-2.4c0-0.1,0.1-0.4,0.2-0.7
				C160.8,316.7,160.9,316.7,161.1,316.8z"/>
			<path class="st8" d="M169.8,316c0.2,0.6,0.3,0.8,0.5,1.4c0.2,0.5,0.3,1.1,0.2,1.9c-0.1,0.4-0.1,0.6-0.2,1
				c-0.2,0.8-0.9,1.7-1.9,2.4c-0.8,0.5-1.5,0.6-2,0.5c-0.8-0.1-1.7-0.6-2.7-1.2c0.1-0.1,0.1-0.2,0.2-0.3c0.3,0.2,0.7,0.3,1.2,0.4
				c1.6,0.3,3.4-0.6,4.4-1.9c0.1-0.1,0.2-0.3,0.2-0.4c0-0.2,0-0.4-0.1-0.5c-0.2-0.8-0.5-1.6-0.9-2.3
				C169.1,316.7,169.4,316.4,169.8,316C169.8,316,169.8,316,169.8,316z"/>
			<path class="st8" d="M177.8,320.9c-0.1,0.5-0.1,0.7-0.2,1.2c-0.4,0-0.6-0.1-0.9-0.1c-0.1,0.6-0.6,1.3-1.1,1.8c-1,1-2.4,1.4-3,1.3
				c-1-0.1-2.1-0.7-3.1-1.4c0.1-0.1,0.2-0.2,0.3-0.3c0.4,0.3,0.9,0.5,1.6,0.6c1.1,0.2,2.2-0.2,3.3-0.9c0.6-0.4,1-0.7,1.2-1.2
				c-0.2,0-0.3,0-0.5-0.1c-2.3-0.3-3.3-1.1-3-2.4c0.1-0.6,0.4-1.1,0.8-1.4c0.5-0.5,1.1-0.8,1.8-0.7c1,0.1,1.8,1.5,1.8,3.4
				C177.2,320.8,177.4,320.8,177.8,320.9z M175.5,319.2c-0.3-0.4-0.7-0.6-1.1-0.7c-0.6-0.1-1.3,0.3-1.4,0.7c-0.1,0.5,0.4,0.8,1,1.1
				c0.6,0.2,1.2,0.3,1.9,0.4C176,320.1,175.8,319.6,175.5,319.2z"/>
			<path class="st8" d="M185.4,312.4c-0.3,0.4-0.6,1-0.9,1.1c-0.3,0.2-1.1,0.2-1.7,0.3c-1.1,0.3-2.3,0.6-3.6,0.9c0,0,0,0,0,0
				c0.6,0.3,1,0.5,1.6,0.8c-0.1,0.2-0.2,0.3-0.3,0.5c1.5,1.3,2.5,2.6,2.4,3.6c-0.1,0.9-0.4,1.6-0.9,1.9c-0.7,0.5-1.9,0.7-4,0.5
				c-0.2,0-0.3,0-0.4,0c-0.6-0.1-0.7-0.5-0.7-0.7c0-0.2,0.3-0.6,0.8-0.5c0.3,0,0.4,0,0.7,0.1c1.1,0.1,2.2,0.1,3-0.2
				c0.4-0.2,0.6-0.4,0.7-0.5c0-0.4-0.2-1-0.6-1.5c-0.4-0.6-1.3-1.6-2.9-3c-0.3-0.2-0.3-0.6-0.3-0.9c0-0.2,0.2-0.4,0.3-0.6
				c0.1-0.2,0.4-0.3,0.9-0.5C180.8,313.3,182.9,312.9,185.4,312.4C185.3,312.3,185.3,312.4,185.4,312.4z"/>
			<path class="st8" d="M191.4,318.2c0.6,0.4,1.1,0.9,1.7,1.5c0.5,0.5,0.9,1,1.3,1.5c0.3,0.4,1,0.6,1.6,0.6c0.1,0,0.1,0,0.2,0
				c0,0.5,0,0.7,0,1.2c-0.1,0-0.1,0-0.2,0c-0.9,0-1.4-0.3-1.9-0.9c0,0,0,0-0.1,0c-0.1,0.7-0.7,1.4-1.4,1.4c-1.5,0-2.7-1.4-2.7-3
				c-0.9,0.6-1.3,1.1-1.3,1.4c0,0.4,0.1,1.1,0.4,2.1c0.5,1.6,1.1,3.2,1.1,3.7c0,0.4-0.2,1-0.3,1.4c-0.1,0-0.1,0-0.1,0
				c-0.2-1-0.7-2.3-1.1-3.4c-0.5-1.3-0.8-2.4-0.8-3.1c0-0.4,0.1-0.8,0.3-1.2c0.2-0.7,0.7-1.2,1.2-1.6
				C190,319.3,190.8,318.7,191.4,318.2C191.4,318.2,191.4,318.2,191.4,318.2z M190.6,320.2c0,0.6,0.3,1.2,0.8,1.6
				c0.3,0.3,0.7,0.5,1.3,0.5c0.4,0,0.7-0.1,0.7-0.3c0-0.2-0.1-0.4-0.4-0.7c-0.4-0.5-0.9-1-1.8-1.7
				C191.1,319.6,190.6,319.9,190.6,320.2z"/>
			<path class="st8" d="M196.4,321.8c0.8,0,1.7-0.3,1.9-0.9c0.1-0.4,0.2-0.6,0.3-1c0.3-0.2,0.4-0.3,0.7-0.5c0,0,0,0,0.1,0.1
				c-0.1,0.5-0.2,0.9-0.2,1.1c0,0.3,0.1,0.6,0.4,0.8c0.4,0.2,0.8,0.4,1.4,0.3c0.1,0,0.1,0,0.2,0c0,0.5,0,0.7,0.1,1.2
				c-0.1,0-0.2,0-0.3,0c-1.1,0-1.9-0.2-2.3-0.9c0,0,0,0,0,0c-0.4,0.6-1.2,1-2.2,1c-0.1,0-0.1,0-0.2,0c-0.6,0-0.8-0.4-0.8-0.6
				c0-0.2,0.2-0.6,0.8-0.6C196.3,321.8,196.3,321.8,196.4,321.8z M197.8,326.8c-0.5-0.4-0.9-0.7-1.4-1c0.3-0.3,0.6-0.7,0.9-0.9
				c0.5,0.3,0.9,0.6,1.3,1C198.3,326.3,198.1,326.5,197.8,326.8z M200,326.6c-0.5-0.4-0.9-0.7-1.4-1c0.3-0.4,0.6-0.7,0.9-0.9
				c0.5,0.3,0.9,0.6,1.3,1C200.5,326.1,200.3,326.3,200,326.6z"/>
			<path class="st8" d="M201.4,321.6c0.5,0,0.9-0.2,1.3-0.4c0.3-0.2,0.5-0.5,0.5-1.2c-0.1-1.9-0.4-3.6-0.7-5.8c0-0.2,0-0.3-0.1-0.5
				c0.3-0.4,0.5-0.5,0.9-0.9c0,0,0,0,0.1,0c0.4,2.2,0.5,4.6,0.8,7.5c0,0.4,0.4,1.1,1.7,1c0.1,0,0.1,0,0.1,0c0,0.5,0.1,0.7,0.1,1.2
				c-0.1,0-0.1,0-0.2,0c-1,0.1-1.8-0.2-2.2-0.9c0,0,0,0,0,0c-0.3,0.6-1,1.1-2.1,1.1c-0.1,0-0.1,0-0.2,0c-0.6,0-0.8-0.4-0.8-0.6
				c0-0.2,0.2-0.6,0.7-0.6C201.3,321.6,201.3,321.6,201.4,321.6z"/>
			<path class="st8" d="M206.8,321.3c0.9-0.1,1.8-0.2,2.4-0.4c0.7-0.2,1.2-0.7,1.2-0.9c0-0.1,0-0.1,0-0.2c-0.4,0.1-0.8,0.1-1.2,0.2
				c-1.3,0.1-2.3-0.1-2.7-0.8c-0.1-0.2-0.2-0.4-0.2-0.7c-0.1-0.7,0.2-1.4,0.6-1.9c0.4-0.4,0.8-0.7,1.3-0.7c0.9-0.1,1.6,0.6,2.2,1.7
				c0.3,0.6,0.6,1.3,0.7,2.2c0.1,0.6,0,1.1-0.3,1.6c-0.6,0.8-1.9,1.1-3.8,1.3c-0.4,0-0.5,0-0.9,0.1c-0.6,0-0.8-0.3-0.8-0.6
				c0-0.2,0.1-0.6,0.7-0.6C206.3,321.4,206.4,321.3,206.8,321.3z M206.6,315c-0.5-0.3-0.9-0.6-1.3-0.9c0.2-0.4,0.5-0.7,0.7-1
				c0.4,0.3,0.8,0.6,1.3,0.9C207,314.5,206.8,314.7,206.6,315z M208,317.1c-0.7,0.1-1.2,0.6-1.2,0.9c0.1,0.8,1.5,0.9,3.2,0.7
				C209.7,317.9,208.9,317,208,317.1z M208.6,314.7c-0.5-0.3-0.9-0.6-1.3-0.9c0.2-0.4,0.5-0.7,0.7-1c0.5,0.3,0.8,0.6,1.3,0.9
				C209,314.2,208.8,314.5,208.6,314.7z"/>
			<path class="st8" d="M213.2,322.1c0-0.6-0.1-1.3-0.2-1.9c-0.1-0.4-0.1-0.6-0.1-0.9c-0.3-1.7-0.8-4.2-1.2-5.9
				c0.2-0.4,0.6-0.8,0.9-1.1c0,0,0.1,0,0.1,0c0.5,2,0.9,4.4,1.3,6.6c0.1,0.6,0.1,1.2,0.2,1.6c0,0.5-0.2,1-0.7,1.6
				C213.3,322.1,213.3,322.1,213.2,322.1z"/>
			<path class="st8" d="M220.4,320.1c-1.1,0.2-2.1,0-2.2-0.8c-0.1-0.3,0-0.6,0.1-1.2c0.3-0.9,1.2-1.9,2.9-3.1
				c-0.1-0.3-0.1-0.4-0.2-0.7c0.2-0.3,0.4-0.6,0.6-0.9c0,0,0.1,0,0.1,0c0.4,1.4,0.7,2.9,1.1,4.4c0.2,0.7,0.3,1.1,0.7,1.2
				c0.3,0.1,0.7,0.1,1.2,0c0.1,0,0.2,0,0.3,0c0.1,0.5,0.2,0.7,0.3,1.2c-0.1,0-0.1,0-0.2,0c-1.1,0.2-1.9,0.1-2.6-0.9
				C221.9,319.6,221.2,319.9,220.4,320.1z M221.5,316c-1.7,1.2-2.6,2-2.5,2.5c0.1,0.4,0.8,0.4,1.5,0.3c0.5-0.1,0.9-0.2,1.5-0.5
				C221.8,317.4,221.7,316.9,221.5,316z M219.5,312.9c-0.5-0.3-0.9-0.5-1.4-0.8c0.2-0.4,0.4-0.7,0.6-1c0.5,0.2,0.9,0.5,1.4,0.8
				C219.9,312.3,219.8,312.6,219.5,312.9z M221.5,312.4c-0.5-0.3-0.9-0.5-1.4-0.8c0.2-0.4,0.4-0.7,0.6-1c0.5,0.2,0.9,0.5,1.4,0.8
				C221.9,311.9,221.7,312.1,221.5,312.4z"/>
			<path class="st8" d="M225.2,318.9c0.8-0.2,1.3-0.8,1.4-2c0-0.4,0.2-0.9,0.5-1.3c0.3-0.4,0.7-0.7,1.2-0.8c1.3-0.3,2.8,1.3,3.1,2.7
				c0.2,0.7-0.3,1.3-0.8,1.5c-1.1,0.2-2.3,0.1-3.5-0.4c0,0,0,0-0.1,0c-0.1,0.9-0.6,1.4-1.6,1.6c-0.1,0-0.1,0-0.2,0
				c-0.6,0.1-0.9-0.2-0.9-0.5c-0.1-0.2,0-0.6,0.6-0.7C225,318.9,225.1,318.9,225.2,318.9z M228.8,317.8c0.4,0.1,0.9,0.1,1.4,0
				c0.2,0,0.3-0.1,0.3-0.2c-0.7-1.3-1.6-1.8-2.3-1.7c-0.6,0.1-1,0.5-1.2,1.2C227.5,317.5,228.1,317.7,228.8,317.8z"/>
			<path class="st8" d="M238.7,315.7c0.2,0.5,0.3,0.7,0.4,1.2c-0.4,0.1-0.5,0.2-0.9,0.2c0.1,0.6,0.1,1.4-0.2,2.1
				c-0.5,1.3-1.5,2.1-2.1,2.3c-1,0.3-2.3,0.1-3.5-0.2c0-0.1,0.1-0.2,0.1-0.3c0.5,0.1,1.1,0.1,1.7-0.1c1.1-0.3,2-1,2.6-2
				c0.4-0.6,0.6-1,0.6-1.6c-0.2,0.1-0.3,0.1-0.5,0.1c-2.2,0.6-3.5,0.3-3.9-1c-0.2-0.6-0.1-1.2,0.1-1.6c0.2-0.6,0.7-1.1,1.3-1.3
				c1-0.2,2.3,0.7,3.3,2.5C238.1,315.9,238.3,315.8,238.7,315.7z M235.8,315c-0.4-0.2-0.9-0.3-1.3-0.2c-0.6,0.2-1,0.7-0.9,1.1
				c0.1,0.5,0.7,0.6,1.5,0.6c0.6,0,1.3-0.2,2-0.4C236.7,315.7,236.3,315.3,235.8,315z"/>
			<path class="st8" d="M247.3,314.3c-0.1,0-0.1,0-0.2,0.1c-1.3,0.4-2.2,0.1-3.3-0.6c-0.5-0.3-1-0.5-1.3-0.7c0,0,0,0,0,0
				c0.6,1.4,0,2.8-3,3.6c-0.1,0-0.2,0-0.3,0.1c-0.6,0.2-0.9-0.2-1-0.4c-0.1-0.2,0-0.6,0.5-0.8c0.2,0,0.3-0.1,0.4-0.1
				c0.9-0.2,1.8-0.7,2.4-1.3c0.2-0.2,0.4-0.5,0.3-0.6c-0.1-0.2-0.3-0.4-0.4-0.6c-0.8-0.7-2.1-1.3-3.6-2c-0.4-0.2-0.7-0.3-0.9-0.4
				c-0.1-0.1-0.2-0.3-0.3-0.5c-0.1-0.3-0.1-0.5,0-0.9c0-0.2,0.1-0.3,0.2-0.4c0.8-0.9,2.9-2.3,5.2-4c0,0,0,0,0.1,0
				c0,0.4-0.1,1.1-0.3,1.4c-0.3,0.3-1.3,0.9-2,1.4c-1,0.8-2,1.5-2.6,2.1c0,0,0,0,0,0c0.7,0.2,1.3,0.2,1.8,0.3
				c-0.1,0.2-0.1,0.3-0.1,0.5c1.4,0.6,3.2,1.4,5.2,2.4c0.8,0.4,1.6,0.5,2.4,0.2c0.1,0,0.1,0,0.2-0.1
				C247,313.7,247.1,313.9,247.3,314.3z"/>
			<path class="st8" d="M247.4,313c1.7-0.6,3.2-1.7,4.7-3.6c0,0,0,0,0,0c-1.4,0.1-2.5,0.2-3.5,0.6c-0.6,0.2-0.9,0.5-1.1,0.9
				c0.1,0.2,0.2,0.2,0.3,0.4c0,0.4,0,0.5,0.1,0.9c0,0-0.1,0-0.1,0c-0.4-0.4-0.6-0.6-1-1c-0.4-1,0.3-1.9,1.5-2.4
				c0.7-0.2,1.8-0.4,3.7-0.5c0.6,0,1.2-0.2,1.9-0.4c0.3-0.1,0.5-0.2,0.8-0.3c0,0,0,0,0,0c0,0.5,0,0.7-0.1,1.1
				c-0.9,0.3-1.3,0.7-1.6,1c-0.5,0.6-0.7,1-1.2,1.6c-1,1.3-2.3,2.3-4,2.8c-0.2,0.1-0.3,0.1-0.5,0.2c-0.6,0.2-0.9-0.1-1-0.3
				c-0.1-0.2-0.1-0.6,0.5-0.8C247,313.1,247.1,313.1,247.4,313z"/>
		</g>
	</g>
	<path id="SVGID_x5F_1_x5F_" class="st9" d="M193.2,342.5c47-0.2,89-18.2,116.8-46.4l-25.8-22.4c-24,20.3-55.6,32.7-90.4,32.7
		c-0.2,0-0.4,0-0.6,0c-0.2,0-0.4,0-0.6,0c-34.7,0-66.4-12.4-90.4-32.7l-25.8,22.4C104.2,324.3,146.2,342.4,193.2,342.5z"/>
	<text class="st10 st11">	<textPath  xlink:href="#SVGID_x5F_1_x5F_" startOffset="101.9253%">
KURDISTAN REGIONAL GOVERMENT	</textPath>
</text>
	<g>
		<text transform="matrix(0.6817 -0.9184 0.803 0.596 57.2592 297.0049)" class="st12 st13 st14">1992</text>
	</g>
	<g>
		<text transform="matrix(0.5851 0.8109 -0.8109 0.5851 304.1419 269.5842)" class="st12 st13 st15">1992</text>
	</g>
</g>
</svg>
