<svg id="Capa_1" enable-background="new 0 0 512.265 512.265" height="512" viewBox="0 0 512.265 512.265" width="512" xmlns="http://www.w3.org/2000/svg"><path d="m385.441 226.105c-2.722 0-5.356-1.464-6.724-4.034l-4.055-7.613c-.153-.285-.286-.581-.4-.883-4.175-11.024-1.489-23.531 6.844-31.863l66.107-66.106c8.197-8.196 8.197-21.533 0-29.729l-2.129-2.129c-2.972-2.972-2.972-7.791 0-10.764 2.973-2.972 7.792-2.972 10.765 0l2.129 2.129c6.845 6.846 10.615 15.947 10.615 25.629 0 9.681-3.77 18.783-10.615 25.628l-66.107 66.106c-4.005 4.005-5.363 9.966-3.521 15.299l3.803 7.139c1.976 3.71.571 8.32-3.139 10.296-1.141.608-2.366.895-3.573.895z" fill="#fba615"/><path d="m209.733 512.265c-10.722 0-21.051-4.294-28.622-11.968-8.081-8.191-12.27-19.472-11.492-30.952.005-.073.011-.146.018-.219.517-5.344-1.192-10.468-4.813-14.432-3.593-3.931-8.493-6.091-13.812-6.091-.043 0-.084 0-.127 0l-27.509.178c-.146.001-.291.001-.436.001-28.457 0-53.563-18.085-62.563-45.121-1.328-3.989.83-8.299 4.818-9.627 3.993-1.326 8.299.83 9.627 4.819 6.921 20.793 26.234 34.704 48.119 34.704.113 0 .222 0 .335-.001l27.509-.178c.073-.001.147-.001.219-.001 9.514 0 18.635 4.018 25.058 11.046 6.443 7.051 9.624 16.538 8.739 26.045-.453 7.1 2.148 14.069 7.146 19.135 5.021 5.089 11.993 7.796 19.134 7.399 4.181-.223 7.786 2.991 8.013 7.19.227 4.198-2.991 7.786-7.19 8.013-.723.04-1.449.06-2.171.06z" fill="#586b76"/><path d="m51.285 421.679c-1.947 0-3.896-.743-5.382-2.229-2.972-2.972-2.972-7.792 0-10.764l33.844-33.844c2.973-2.972 7.791-2.972 10.765 0 2.972 2.972 2.972 7.792 0 10.764l-33.845 33.844c-1.487 1.486-3.435 2.229-5.382 2.229z" fill="#fba615"/><path d="m81.396 383.383-.718-.718c-13.233-13.233-13.233-34.687 0-47.92l311.995-311.995c1.432-1.432 3.753-1.432 5.185 0l43.453 43.453c1.432 1.432 1.432 3.753 0 5.185l-311.995 311.995c-13.232 13.232-34.687 13.232-47.92 0z" fill="#0a81f9"/><path d="m441.272 66.164-15.448-15.448-303.783 303.783c-13.431 13.431-35.207 13.431-48.637 0-.657-.657-1.272-1.339-1.864-2.034-1.973 10.746 1.189 22.249 9.499 30.559 13.431 13.431 35.207 13.431 48.637 0l311.596-311.597c1.453-1.454 1.453-3.81 0-5.263z" fill="#0571f9"/><path d="m290.869 221.786-48.593-48.593c-3.687-3.687-3.687-9.666 0-13.353l147.198-147.2c16.854-16.854 44.179-16.854 61.033 0l.914.914c16.854 16.854 16.854 44.179 0 61.033l-147.199 147.199c-3.687 3.687-9.666 3.687-13.353 0z" fill="#0a81f9"/><path d="m452.786 15.044c-.707 10.17-4.936 20.142-12.711 27.916l-146.642 146.642c-3.743 3.743-9.811 3.743-13.553 0l-33.684-33.684-3.82 3.82c-3.743 3.743-3.743 9.811 0 13.554l48.393 48.393c3.743 3.743 9.811 3.743 13.553 0l146.642-146.641c16.473-16.473 17.075-42.798 1.822-60z" fill="#0571f9"/><path d="m378.553 25.187h33.037v87.606h-33.037z" fill="#fcb143" transform="matrix(.707 -.707 .707 .707 66.931 299.564)"/><path d="m398.784 74.027h33.037v30.386h-33.037z" fill="#fba615" transform="matrix(.707 -.707 .707 .707 58.551 319.795)"/><circle cx="391.269" cy="220.618" fill="#fcb143" r="13.394"/></svg>